<svg width="640" height="640" viewBox="0 0 640 640" xmlns="http://www.w3.org/2000/svg">
  <defs>
    <linearGradient id="faceBg" x1="0" y1="0" x2="1" y2="1">
      <stop offset="0%" stop-color="#fef3c7" />
      <stop offset="100%" stop-color="#fcd34d" />
    </linearGradient>
    <linearGradient id="shadow" x1="0" y1="0" x2="0" y2="1">
      <stop offset="0%" stop-color="#fef9c3" stop-opacity="0.9" />
      <stop offset="100%" stop-color="#f8b4b4" stop-opacity="0.2" />
    </linearGradient>
  </defs>
  <rect width="640" height="640" rx="48" fill="#0f172a" />
  <circle cx="320" cy="320" r="220" fill="url(#faceBg)" />
  <circle cx="320" cy="320" r="220" fill="url(#shadow)" opacity="0.45" />
  <path d="M180 220 C180 160 240 110 320 110 C400 110 460 160 460 220 C460 280 400 330 320 330 C240 330 180 280 180 220 Z" fill="#111827" />
  <path d="M200 240 C200 190 250 160 320 160 C390 160 440 190 440 240 C440 290 390 320 320 320 C250 320 200 290 200 240 Z" fill="#fde68a" />
  <circle cx="255" cy="250" r="26" fill="#111827" />
  <circle cx="385" cy="250" r="26" fill="#111827" />
  <circle cx="260" cy="248" r="10" fill="#ffffff" />
  <circle cx="390" cy="248" r="10" fill="#ffffff" />
  <path d="M240 330 C285 380 355 380 400 330" stroke="#111827" stroke-width="18" fill="none" stroke-linecap="round" />
  <path d="M170 280 C150 320 170 360 210 375" stroke="#fbbf24" stroke-width="18" fill="none" stroke-linecap="round" opacity="0.7" />
  <path d="M470 280 C490 320 470 360 430 375" stroke="#38bdf8" stroke-width="18" fill="none" stroke-linecap="round" opacity="0.7" />
  <path d="M110 520 L530 520 C560 520 580 500 580 470 L580 420 C580 390 560 360 530 360 L110 360 C80 360 60 390 60 420 L60 470 C60 500 80 520 110 520 Z" fill="#111827" opacity="0.9" />
  <circle cx="180" cy="450" r="18" fill="#fbbf24" />
  <circle cx="460" cy="450" r="18" fill="#38bdf8" />
</svg>
